# AST/ASF file generated using VICON BodyLanguage
# -----------------------------------------------
:version 1.10
:name VICON
:units
  mass 1.0
  length 0.45
  angle deg
:documentation
   .ast/.asf automatically generated from VICON data using
   VICON BodyBuilder and BodyLanguage model FoxedUp or BRILLIANT.MOD
:root
   order TX TY TZ RX RY RZ
   axis XYZ
   position 0 0 0  
   orientation 0 0 0 
:bonedata
  begin
     id 1 
     name lhipjoint
     direction 0.567149 -0.783011 0.255413 
     length 2.28399 
     axis 0 0 0  XYZ
  end
  begin
     id 2 
     name lfemur
     direction 0.34202 -0.939693 0  
     length 7.34031  
     axis 0 0 20  XYZ
    dof rx ry rz
    limits (-160.0 20.0)
           (-70.0 70.0)
           (-60.0 70.0)
  end
  begin
     id 3 
     name ltibia
     direction 0.34202 -0.939693 0   
     length 6.9833   
     axis 0 0 20   XYZ
    dof rx
    limits (-10.0 170.0)
  end
  begin
     id 4 
     name lfoot
     direction 0.136498 -0.375025 0.91691   
     length 2.33665   
     axis -90 7.62852e-016 20   XYZ
    dof rx rz
    limits (-45.0 90.0)
           (-70.0 20.0)
  end
  begin
     id 5 
     name ltoes
     direction 1.5367e-011 -4.21617e-011 1   
     length 1.15039   
     axis -90 7.62852e-016 20   XYZ
    dof rx
    limits (-90.0 20.0)
  end
  begin
     id 6 
     name rhipjoint
     direction -0.602854 -0.758518 0.247423   
     length 2.35775  
     axis 0 0 0  XYZ 
  end
  begin
     id 7 
     name rfemur
     direction -0.34202 -0.939693 0   
     length 7.43932   
     axis 0 0 -20   XYZ
    dof rx ry rz
    limits (-160.0 20.0)
           (-70.0 70.0)
           (-70.0 60.0)
  end
  begin
     id 8 
     name rtibia
     direction -0.34202 -0.939693 0   
     length 7.11893   
     axis 0 0 -20   XYZ
    dof rx
    limits (-10.0 170.0)
 end
 begin
     id 9 
     name rfoot
     direction -0.131771 -0.362037 0.922803   
     length 2.53019  
     axis -90 -7.62852e-016 -20   XYZ
    dof rx rz
    limits (-45.0 90.0)
           (-20.0 70.0)
  end
  begin
     id 10 
     name rtoes
     direction -1.53733e-011 -4.21932e-011 1   
     length 1.24596   
     axis -90 -7.62852e-016 -20   XYZ
    dof rx
    limits (-90.0 20.0)
  end
  begin
     id 11 
     name lowerback
     direction 0.0235427 0.999023 -0.0374125   
     length 2.21768   
     axis 0 0 0   XYZ
    dof rx ry rz
    limits (-20.0 45.0)
           (-30.0 30.0)
           (-30.0 30.0)
  end
  begin
     id 12 
     name upperback
     direction 0.0302156 0.996818 -0.073759   
     length 2.20352   
     axis 0 0 0   XYZ
    dof rx ry rz
    limits (-20.0 45.0)
           (-30.0 30.0)
           (-30.0 30.0)
  end
  begin
     id 13 
     name thorax
     direction 0.0187169 0.998235 -0.0563532   
     length 2.22103   
     axis 0 0 0   XYZ
    dof rx ry rz
    limits (-20.0 45.0)
           (-30.0 30.0)
           (-30.0 30.0)
  end
  begin
     id 14 
     name lowerneck
     direction -0.119528 0.987423 0.103481   
     length 1.72948   
     axis 0 0 0   XYZ
    dof rx ry rz
    limits (-20.0 45.0)
           (-30.0 30.0)
           (-30.0 30.0)
  end
  begin
     id 15 
     name upperneck
     direction 0.248049 0.963095 -0.104496   
     length 1.74979   
     axis 0 0 0   XYZ
    dof rx ry rz
    limits (-20.0 45.0)
           (-30.0 30.0)
           (-30.0 30.0)
  end
  begin
     id 16
     name head
     direction 0.0903589 0.994284 -0.056876  
     length 1.78268  
     axis 0 0 0   XYZ
    dof rx ry rz
    limits (-20.0 45.0)
           (-30.0 30.0)
           (-30.0 30.0)
  end
  begin
     id 17 
     name lclavicle
     direction 0.946008 0.242039 -0.215608  
     length 3.80783  
     axis 0 0 0   XYZ
    dof ry rz
    limits (-20.0 10.0)
           (0.0 20.0)
  end
  begin
     id 18 
     name lhumerus
     direction 1 -4.48991e-011 -2.25695e-027   
     length 4.83125   
     axis 180 -30 -90   XYZ
    dof rx ry rz
    limits (-60.0 90.0)
           (-90.0 90.0)
           (-90.0 90.0)
  end
  begin
     id 19
     name lradius
     direction 0.999991 0.00366712 -0.00211721   
     length 3.00391   
     axis 180 -30 -90   XYZ
    dof rx
    limits (-10.0 170.0)
  end
  begin
     id 20
     name lwrist
     direction 0.999991 0.00393016 -0.00141978   
     length 1.50195   
     axis -1.00488e-014 90 90   XYZ
    dof ry
    limits (-180.0 0.0)
 end
  begin
     id 21 
     name lhand
     direction 1 -4.49123e-011 2.72098e-026   
     length 1.2717   
     axis -1.73687e-014 90 90   XYZ
    dof rx rz
    limits (-90.0 90.0)
           (-45.0 45.0)
  end
  begin
     id 22 
     name lfingers
     direction 1 -4.48678e-011 5.4479e-026   
     length 1.02528   
     axis -3.47372e-014 90 90   XYZ
    dof rx
    limits (0.0 90.0)
  end
  begin
     id 23
     name lthumb
     direction 0.707107 -6.34851e-011 0.707107   
     length 1.4721   
     axis -90 45 -1.62303e-014   XYZ
    dof rx rz
    limits (-45.0 45.0)
           (-45.0 45.0)
  end
  begin
     id 24 
     name rclavicle
     direction -0.981723 0.189447 -0.0181673   
     length 3.74989  
     axis 0 0 0   XYZ 
    dof ry rz
    limits (-10.0 20.0)
           (-20.0 0.0)
  end
  begin
     id 25 
     name rhumerus
     direction -1 -4.48985e-011 2.38206e-027  
     length 4.61118   
     axis 180 30 90   XYZ
    dof rx ry rz
    limits (-90.0 60.0)
           (-90.0 90.0)
           (-90.0 90.0)
  end
  begin
     id 26 
     name rradius
     direction -1 -4.48977e-011 7.41019e-027   
     length 2.91491   
     axis 180 30 90   XYZ
    dof rx
    limits (-10.0 170.0)
  end
  begin
     id 27 
     name rwrist
     direction -1 -4.48549e-011 1.3624e-026   
     length 1.45745   
     axis -1.00488e-014 -90 -90   XYZ
    dof ry
    limits (-180.0 0.0)
  end
  begin
     id 28
     name rhand
     direction -1 -4.49107e-011 2.72109e-026   
     length 1.30769   
     axis -1.73687e-014 -90 -90   XYZ
    dof rx rz
    limits (-90.0 90.0)
           (-45.0 45.0)
  end
  begin
     id 29
     name rfingers
     direction -1 -4.48919e-011 5.44468e-026   
     length 1.05429   
     axis -3.47372e-014 -90 -90   XYZ
    dof rx
    limits (0.0 90.0)
  end
  begin
     id 30
     name rthumb
     direction -0.707107 -6.35315e-011 0.707107   
     length 1.51376   
     axis -90 -45 1.62303e-014   XYZ
    dof rx rz
    limits (-45.0 45.0)
           (-45.0 45.0)
  end
:hierarchy
  begin
    root lhipjoint rhipjoint lowerback
    lhipjoint lfemur
    lfemur ltibia
    ltibia lfoot
    lfoot ltoes
    rhipjoint rfemur
    rfemur rtibia
    rtibia rfoot
    rfoot rtoes
    lowerback upperback
    upperback thorax
    thorax lowerneck lclavicle rclavicle
    lowerneck upperneck
    upperneck head
    lclavicle lhumerus
    lhumerus lradius
    lradius lwrist
    lwrist lhand lthumb
    lhand lfingers
    rclavicle rhumerus
    rhumerus rradius
    rradius rwrist
    rwrist rhand rthumb
    rhand rfingers
  end

#!OML:ASF X:\für Bonn\!DataBase\2005_08_11_Bastian_Final\c3d\Bastian.ASF
:FULLY-SPECIFIED
:DEGREES
1
root 1.82966 17.3557 0.273261 170.748 -3.14596 -176.437
lowerback 8.19224 -1.93455 1.13581
upperback 3.97385 -2.83076 1.50143
thorax -0.455093 -1.56628 1.14753
lowerneck -11.987 -6.97558 -6.63705
upperneck 1.04072 -8.56733 8.32344
head 2.88755 -3.88535 3.05097
rclavicle 3.20851e-015 -1.02374e-014
rhumerus 77.8413 24.847 2.6521
rradius 38.5289
rwrist -55.0556
rhand -42.3628 -2.6767
rfingers 7.12502
rthumb -15.2446 -32.095
lclavicle 3.20851e-015 -1.02374e-014
lhumerus 78.167 -27.9165 -36.5676
lradius 31.4778
lwrist 29.3894
lhand -41.2281 17.299
lfingers 7.12502
lthumb -14.1515 46.797
rfemur -5.32882 1.6741 27.6684
rtibia 38.0243
rfoot -19.0515 -11.9102
rtoes 1.81079
lfemur -3.95735 0.0934714 -15.3894
ltibia 34.1536
lfoot -14.5094 -8.19283
ltoes -18.0939
2
root 1.83391 17.3502 0.277368 170.86 -3.24656 -176.336
lowerback 8.40178 -1.95463 1.19294
upperback 3.90028 -2.84485 1.54591
thorax -0.646473 -1.57245 1.1741
lowerneck -12.0585 -7.00958 -6.68481
upperneck 1.02138 -8.60184 8.41258
head 2.90214 -3.89554 3.08104
rclavicle 2.44443e-015 3.18055e-015
rhumerus 77.7246 24.6066 2.41921
rradius 38.697
rwrist -54.7839
rhand -42.4286 -2.65058
rfingers 7.12502
rthumb -15.308 -32.064
lclavicle 2.44443e-015 3.18055e-015
lhumerus 76.9637 -27.8993 -33.6589
lradius 31.3104
lwrist 27.471
lhand -41.2332 16.9325
lfingers 7.12502
lthumb -14.1563 46.4302
rfemur -5.58312 1.26512 27.6946
rtibia 38.1697
rfoot -19.1245 -11.6395
rtoes 1.68209
lfemur -4.31262 0.178658 -15.2215
ltibia 34.5103
lfoot -14.6616 -8.47354
ltoes -17.9474
3
root 1.83811 17.3414 0.282174 170.985 -3.36949 -176.228
lowerback 8.59171 -1.98465 1.26579
upperback 3.8423 -2.87251 1.5828
thorax -0.811884 -1.58568 1.18416
lowerneck -12.143 -7.04245 -6.75191
upperneck 0.9643 -8.6286 8.54372
head 2.90991 -3.89909 3.12771
rclavicle 4.50775e-014 -7.65321e-015
rhumerus 77.581 24.3517 2.1046
rradius 38.8631
rwrist -54.4366
rhand -42.487 -2.61934
rfingers 7.12502
rthumb -15.3642 -32.0285
lclavicle 4.50775e-014 -7.65321e-015
lhumerus 75.6007 -27.8149 -30.3282
lradius 31.013
lwrist 25.1923
lhand -41.1669 16.4389
lfingers 7.12502
lthumb -14.0925 45.941
rfemur -5.89662 0.743592 27.7115
rtibia 38.39
rfoot -19.2148 -11.3242
rtoes 1.47641
lfemur -4.73043 0.283753 -15.0468
ltibia 34.9379
lfoot -14.8511 -8.7807
ltoes -17.7247
4
root 1.84169 17.3291 0.288286 171.077 -3.47395 -176.099
lowerback 8.83206 -2.01479 1.35146
upperback 3.7852 -2.89947 1.63514
thorax -1.00383 -1.59957 1.20546
lowerneck -12.2195 -7.07137 -6.80049
upperneck 0.941478 -8.65506 8.6295
head 2.92362 -3.90518 3.15744
rclavicle -1.76142e-014 2.92213e-014
rhumerus 77.4178 24.1163 1.6948
rradius 39.0205
rwrist -54.0263
rhand -42.5217 -2.53341
rfingers 7.12502
rthumb -15.3977 -31.94
lclavicle -1.76142e-014 2.92213e-014
lhumerus 74.1154 -27.6838 -26.6237
lradius 30.6493
lwrist 22.583
lhand -41.0925 15.924
lfingers 7.12502
lthumb -14.0207 45.4312
rfemur -6.2243 0.183809 27.7449
rtibia 38.6826
rfoot -19.3495 -10.949
rtoes 1.28852
lfemur -5.16559 0.441095 -14.85
ltibia 35.4574
lfoot -15.0765 -9.06961
ltoes -17.7294
5
root 1.84444 17.3125 0.295241 171.167 -3.59264 -175.995
lowerback 9.08989 -2.0416 1.43296
upperback 3.73086 -2.92126 1.6644
thorax -1.20358 -1.61069 1.20587
lowerneck -12.3003 -7.10365 -6.84122
upperneck 0.908511 -8.68597 8.73078
head 2.93582 -3.91218 3.19034
rclavicle -1.30918e-014 7.25564e-015
rhumerus 77.1469 23.8976 1.03696
rradius 39.1359
rwrist -53.4309
rhand -42.444 -2.49901
rfingers 7.12502
rthumb -15.3229 -31.9113
lclavicle -1.30918e-014 7.25564e-015
lhumerus 72.6178 -27.4583 -22.8914
lradius 30.3439
lwrist 19.8718
lhand -40.9835 15.4497
lfingers 7.12502
lthumb -13.9157 44.9641
rfemur -6.60431 -0.434034 27.7308
rtibia 39.0742
rfoot -19.5282 -10.5057
rtoes 1.19405
lfemur -5.64271 0.551654 -14.6989
ltibia 36.0715
lfoot -15.3609 -9.30566
ltoes -17.6252
6
root 1.84737 17.2908 0.302846 171.236 -3.70424 -175.866
lowerback 9.34448 -2.06607 1.5392
upperback 3.70467 -2.94135 1.70003
thorax -1.37319 -1.62239 1.19814
lowerneck -12.3636 -7.14121 -6.86016
upperneck 0.83278 -8.72319 8.81872
head 2.93128 -3.92295 3.21647
rclavicle 1.02126e-014 -1.15295e-014
rhumerus 76.8786 23.6421 0.348396
rradius 39.2178
rwrist -52.8554
rhand -42.39 -2.38812
rfingers 7.12502
rthumb -15.2708 -31.8044
lclavicle 1.02126e-014 -1.15295e-014
lhumerus 71.1445 -27.1267 -19.2758
lradius 30.1213
lwrist 17.2062
lhand -40.9104 15.0023
lfingers 7.12502
lthumb -13.8453 44.5215
rfemur -7.01586 -1.00746 27.7663
rtibia 39.5575
rfoot -19.7214 -10.1386
rtoes 1.05886
lfemur -6.15984 0.665462 -14.521
ltibia 36.7933
lfoot -15.7076 -9.52935
ltoes -17.607
